<?xml version="1.0" encoding="UTF-8" standalone="no"?>
<!-- Created with Inkscape (http://www.inkscape.org/) -->

<svg
   width="300mm"
   height="300mm"
   viewBox="0 0 300 300"
   version="1.1"
   id="svg5"
   inkscape:version="1.2.1 (9c6d41e410, 2022-07-14)"
   sodipodi:docname="logo.svg"
   inkscape:export-filename="logo_export.svg"
   inkscape:export-xdpi="96"
   inkscape:export-ydpi="96"
   xmlns:inkscape="http://www.inkscape.org/namespaces/inkscape"
   xmlns:sodipodi="http://sodipodi.sourceforge.net/DTD/sodipodi-0.dtd"
   xmlns="http://www.w3.org/2000/svg"
   xmlns:svg="http://www.w3.org/2000/svg">
  <sodipodi:namedview
     id="namedview7"
     pagecolor="#ffffff"
     bordercolor="#666666"
     borderopacity="1.0"
     inkscape:showpageshadow="2"
     inkscape:pageopacity="0.0"
     inkscape:pagecheckerboard="0"
     inkscape:deskcolor="#d1d1d1"
     inkscape:document-units="mm"
     showgrid="false"
     inkscape:zoom="0.52284039"
     inkscape:cx="561.35679"
     inkscape:cy="557.53153"
     inkscape:window-width="1920"
     inkscape:window-height="1017"
     inkscape:window-x="-9"
     inkscape:window-y="-9"
     inkscape:window-maximized="1"
     inkscape:current-layer="layer1" />
  <defs
     id="defs2" />
  <g
     inkscape:label="Warstwa 1"
     inkscape:groupmode="layer"
     id="layer1">
    <rect
       style="fill:#28dbd6;fill-opacity:1;stroke:none;stroke-width:1.665;stroke-dasharray:none;stroke-opacity:1"
       id="rect1827"
       width="344.62"
       height="338.54739"
       x="-20.495024"
       y="-13.410322" />
    <path
       id="rect44118-5"
       style="fill:#270000;stroke-width:0.938357"
       d="m 111.77882,96.674124 c -2.09961,0.361176 -5.64269,2.862967 -7.68225,2.271727 -2.03956,-0.591256 -5.090563,-5.852056 -5.090563,-5.852056 l -1.8945,1.510274 c -1.35701,1.081791 3.979623,6.207191 6.391523,6.838941 2.55662,0.66967 6.10932,-1.433 9.06939,-2.480259 0,0 -2.4e-4,-2.4251 -0.7936,-2.288627 z"
       sodipodi:nodetypes="szcsscs" />
    <path
       id="rect44118"
       style="fill:#270000;stroke-width:1.1803"
       d="m 61.75974,44.425091 c -2.688779,0.03745 -7.592691,2.443643 -10.022085,1.313556 -2.429376,-1.1301 -5.215693,-8.239278 -5.215693,-8.239278 l -2.655575,1.500256 c -1.902158,1.074615 3.761249,8.462193 6.647196,9.715097 3.05911,1.328112 7.897699,-0.582028 11.792647,-1.301049 0,0 0.469502,-3.002731 -0.54649,-2.988582 z"
       sodipodi:nodetypes="szcsscs" />
    <path
       id="rect44118-8"
       style="fill:#270000;stroke-width:1.1891"
       d="m 87.469477,36.96157 c 1.721241,-2.108838 6.680233,-4.477819 7.329472,-7.118656 0.649249,-2.640818 -3.130855,-9.342664 -3.130855,-9.342664 l 2.838941,-1.158219 c 2.033492,-0.82963 4.219655,8.329973 3.37871,11.410505 -0.891396,3.265399 -5.423165,5.896006 -8.433979,8.530813 0,0 -2.632686,-1.524912 -1.982289,-2.321779 z"
       sodipodi:nodetypes="szcsscs" />
    <path
       id="rect111"
       style="stroke-width:1.665;fill:#3fa51c;fill-opacity:1;stroke:none;stroke-opacity:1;stroke-dasharray:none"
       d="m -16.193593,209.50464 c 105.916397,-27.37996 390.670543,16.1936 390.670543,16.1936 L 369.9225,335.005 H -38.965839 c 0,0 -83.144151,-98.1204 22.772246,-125.50036 z"
       sodipodi:nodetypes="zcccz" />
    <path
       id="rect111-9"
       style="fill:#307f15;fill-opacity:1;stroke:none;stroke-width:1.665;stroke-dasharray:none;stroke-opacity:1"
       d="M -3.1167159,223.02332 C 102.79968,195.64336 387.55383,239.21692 387.55383,239.21692 l -4.55445,109.30676 H -25.888962 c 0,0 -83.144148,-98.1204 22.7722461,-125.50036 z"
       sodipodi:nodetypes="zcccz" />
    <a
       id="a52916-7-8-18"
       transform="matrix(0.78831327,0.00972594,-0.00787346,0.44705688,152.86007,135.51126)"
       style="stroke:#307f15;stroke-width:0.769503;stroke-dasharray:none;stroke-opacity:1">
      <path
         id="rect51790-4-3-6-0-2-7"
         style="fill:#3fa51c;stroke:#307f15;stroke-width:0.769503;stroke-dasharray:none;stroke-opacity:1"
         d="m 70.085389,221.23993 c -1.085578,-0.0341 -3.060857,14.20884 -4.31438,28.0997 -0.675309,-7.03863 -1.891933,-12.68463 -3.78224,-12.72007 -0.195762,-0.004 -0.41509,0.2208 -0.651458,0.63105 -0.766662,-4.81122 -1.722039,-8.03683 -2.844666,-7.91883 -0.596268,0.0626 -1.329705,3.64079 -2.020502,8.80385 -0.474942,-5.41307 -1.161552,-9.19988 -2.100203,-9.2315 -0.75047,-0.0253 -2.01845,8.85041 -3.015829,18.95194 -2.057642,-10.26045 -4.566424,-19.38167 -6.427877,-18.96041 -0.860555,0.19472 -1.123826,7.95741 -0.934213,17.19801 -2.163366,-4.3296 -4.217165,-7.21885 -5.61573,-6.79261 -0.898547,0.27385 -0.713224,5.61669 0.05776,12.3004 -2.58698,-4.13674 -4.793285,-7.01918 -5.639669,-6.64455 -1.412555,0.62519 9.971015,35.92171 11.83393,34.36717 0.10152,-0.0847 0.205487,-0.16649 0.308723,-0.24923 0.196466,0.11647 0.388549,0.13286 0.573812,0.0364 3.052512,-1.58953 5.415797,-2.44622 6.882844,-2.89574 0.832201,-0.17091 1.555115,-0.25955 2.160634,-0.29781 0.204029,1.18367 0.503454,1.79461 0.916556,1.64167 1.992775,-0.73776 3.634819,-1.14482 4.888207,-1.37146 3.386708,-0.28447 5.251195,-0.0359 5.251195,-0.0359 0.07136,-0.20388 0.137657,-0.46898 0.200467,-0.78445 2.056039,-0.55889 3.712632,-0.75134 4.916311,-0.79208 0.02815,0.82982 0.1544,1.27407 0.400294,1.22229 0.08902,-0.0187 0.172459,-0.0331 0.259258,-0.0499 0.187287,0.62147 0.426939,0.91785 0.727193,0.80669 1.19088,-0.44089 2.256515,-0.7632 3.190781,-1.00074 0.594387,0.0796 0.905154,0.18963 0.905154,0.18963 0.01922,-0.0665 0.03922,-0.14107 0.05918,-0.21983 0.853179,0.17391 1.611075,0.35075 2.272956,0.52041 0.05137,0.21152 0.12224,0.31715 0.21679,0.29127 0.156964,-0.043 0.30883,-0.0802 0.456389,-0.1132 1.779816,0.48935 2.692522,0.87919 2.692522,0.87919 0.164475,-0.20989 0.348577,-0.50091 0.548137,-0.8584 0.0033,0.001 0.01742,0.006 0.01742,0.006 0.0035,-0.0159 0.0071,-0.0407 0.01059,-0.0574 3.834524,-6.94088 13.470057,-39.12578 8.629572,-40.60035 -0.912191,-0.27789 -3.668509,3.52524 -6.854936,8.85555 -0.05449,-3.46429 -0.283626,-5.79811 -0.777206,-5.8762 -0.382142,-0.0605 -1.317899,4.89338 -2.28088,11.22448 -0.526035,0.95715 -1.051584,1.92875 -1.571604,2.91297 -0.138744,-2.22988 -0.304049,-4.46343 -0.495241,-6.63199 0.252409,-6.48833 0.100142,-11.48315 -0.847502,-11.61101 l 9e-6,9.2e-4 c -0.118443,-0.016 -0.280985,0.25453 -0.477853,0.75729 -0.73631,-4.2389 -1.633455,-7.00474 -2.674497,-6.89532 -0.607526,0.0638 -1.357004,3.7737 -2.05913,9.09515 -0.555942,-9.0362 -1.52054,-16.13694 -2.991061,-16.18315 z" />
    </a>
    <path
       id="rect4011"
       style="fill:#45210c;stroke-width:1.54204"
       d="m 209.30976,145.68534 20.71169,-0.53148 c 0,0 13.32796,106.97821 14.32412,121.03275 1.32799,18.73635 -34.82613,17.39373 -40.67865,7.38114 -7.81317,-13.36692 5.64284,-127.88241 5.64284,-127.88241 z"
       sodipodi:nodetypes="ccssc" />
    <a
       id="a52916-7-8-23"
       transform="matrix(0.79159292,0.0121974,-0.00790622,0.56065884,199.09291,129.2019)"
       style="stroke:#307f15;stroke-width:0.769503;stroke-dasharray:none;stroke-opacity:1">
      <path
         id="rect51790-4-3-6-0-2-29"
         style="fill:#3fa51c;stroke:#307f15;stroke-width:0.769503;stroke-dasharray:none;stroke-opacity:1"
         d="m 70.085389,221.23993 c -1.085578,-0.0341 -3.060857,14.20884 -4.31438,28.0997 -0.675309,-7.03863 -1.891933,-12.68463 -3.78224,-12.72007 -0.195762,-0.004 -0.41509,0.2208 -0.651458,0.63105 -0.766662,-4.81122 -1.722039,-8.03683 -2.844666,-7.91883 -0.596268,0.0626 -1.329705,3.64079 -2.020502,8.80385 -0.474942,-5.41307 -1.161552,-9.19988 -2.100203,-9.2315 -0.75047,-0.0253 -2.01845,8.85041 -3.015829,18.95194 -2.057642,-10.26045 -4.566424,-19.38167 -6.427877,-18.96041 -0.860555,0.19472 -1.123826,7.95741 -0.934213,17.19801 -2.163366,-4.3296 -4.217165,-7.21885 -5.61573,-6.79261 -0.898547,0.27385 -0.713224,5.61669 0.05776,12.3004 -2.58698,-4.13674 -4.793285,-7.01918 -5.639669,-6.64455 -1.412555,0.62519 9.971015,35.92171 11.83393,34.36717 0.10152,-0.0847 0.205487,-0.16649 0.308723,-0.24923 0.196466,0.11647 0.388549,0.13286 0.573812,0.0364 3.052512,-1.58953 5.415797,-2.44622 6.882844,-2.89574 0.832201,-0.17091 1.555115,-0.25955 2.160634,-0.29781 0.204029,1.18367 0.503454,1.79461 0.916556,1.64167 1.992775,-0.73776 3.634819,-1.14482 4.888207,-1.37146 3.386708,-0.28447 5.251195,-0.0359 5.251195,-0.0359 0.07136,-0.20388 0.137657,-0.46898 0.200467,-0.78445 2.056039,-0.55889 3.712632,-0.75134 4.916311,-0.79208 0.02815,0.82982 0.1544,1.27407 0.400294,1.22229 0.08902,-0.0187 0.172459,-0.0331 0.259258,-0.0499 0.187287,0.62147 0.426939,0.91785 0.727193,0.80669 1.19088,-0.44089 2.256515,-0.7632 3.190781,-1.00074 0.594387,0.0796 0.905154,0.18963 0.905154,0.18963 0.01922,-0.0665 0.03922,-0.14107 0.05918,-0.21983 0.853179,0.17391 1.611075,0.35075 2.272956,0.52041 0.05137,0.21152 0.12224,0.31715 0.21679,0.29127 0.156964,-0.043 0.30883,-0.0802 0.456389,-0.1132 1.779816,0.48935 2.692522,0.87919 2.692522,0.87919 0.164475,-0.20989 0.348577,-0.50091 0.548137,-0.8584 0.0033,0.001 0.01742,0.006 0.01742,0.006 0.0035,-0.0159 0.0071,-0.0407 0.01059,-0.0574 3.834524,-6.94088 13.470057,-39.12578 8.629572,-40.60035 -0.912191,-0.27789 -3.668509,3.52524 -6.854936,8.85555 -0.05449,-3.46429 -0.283626,-5.79811 -0.777206,-5.8762 -0.382142,-0.0605 -1.317899,4.89338 -2.28088,11.22448 -0.526035,0.95715 -1.051584,1.92875 -1.571604,2.91297 -0.138744,-2.22988 -0.304049,-4.46343 -0.495241,-6.63199 0.252409,-6.48833 0.100142,-11.48315 -0.847502,-11.61101 l 9e-6,9.2e-4 c -0.118443,-0.016 -0.280985,0.25453 -0.477853,0.75729 -0.73631,-4.2389 -1.633455,-7.00474 -2.674497,-6.89532 -0.607526,0.0638 -1.357004,3.7737 -2.05913,9.09515 -0.555942,-9.0362 -1.52054,-16.13694 -2.991061,-16.18315 z" />
    </a>
    <a
       id="a52916-7-8-1"
       transform="matrix(0.83356489,0.01219231,-0.00832542,0.56042485,98.901079,90.800964)"
       style="stroke:#307f15;stroke-width:0.769503;stroke-dasharray:none;stroke-opacity:1">
      <path
         id="rect51790-4-3-6-0-2-1"
         style="fill:#3fa51c;stroke:#307f15;stroke-width:0.769503;stroke-dasharray:none;stroke-opacity:1"
         d="m 70.085389,221.23993 c -1.085578,-0.0341 -3.060857,14.20884 -4.31438,28.0997 -0.675309,-7.03863 -1.891933,-12.68463 -3.78224,-12.72007 -0.195762,-0.004 -0.41509,0.2208 -0.651458,0.63105 -0.766662,-4.81122 -1.722039,-8.03683 -2.844666,-7.91883 -0.596268,0.0626 -1.329705,3.64079 -2.020502,8.80385 -0.474942,-5.41307 -1.161552,-9.19988 -2.100203,-9.2315 -0.75047,-0.0253 -2.01845,8.85041 -3.015829,18.95194 -2.057642,-10.26045 -4.566424,-19.38167 -6.427877,-18.96041 -0.860555,0.19472 -1.123826,7.95741 -0.934213,17.19801 -2.163366,-4.3296 -4.217165,-7.21885 -5.61573,-6.79261 -0.898547,0.27385 -0.713224,5.61669 0.05776,12.3004 -2.58698,-4.13674 -4.793285,-7.01918 -5.639669,-6.64455 -1.412555,0.62519 9.971015,35.92171 11.83393,34.36717 0.10152,-0.0847 0.205487,-0.16649 0.308723,-0.24923 0.196466,0.11647 0.388549,0.13286 0.573812,0.0364 3.052512,-1.58953 5.415797,-2.44622 6.882844,-2.89574 0.832201,-0.17091 1.555115,-0.25955 2.160634,-0.29781 0.204029,1.18367 0.503454,1.79461 0.916556,1.64167 1.992775,-0.73776 3.634819,-1.14482 4.888207,-1.37146 3.386708,-0.28447 5.251195,-0.0359 5.251195,-0.0359 0.07136,-0.20388 0.137657,-0.46898 0.200467,-0.78445 2.056039,-0.55889 3.712632,-0.75134 4.916311,-0.79208 0.02815,0.82982 0.1544,1.27407 0.400294,1.22229 0.08902,-0.0187 0.172459,-0.0331 0.259258,-0.0499 0.187287,0.62147 0.426939,0.91785 0.727193,0.80669 1.19088,-0.44089 2.256515,-0.7632 3.190781,-1.00074 0.594387,0.0796 0.905154,0.18963 0.905154,0.18963 0.01922,-0.0665 0.03922,-0.14107 0.05918,-0.21983 0.853179,0.17391 1.611075,0.35075 2.272956,0.52041 0.05137,0.21152 0.12224,0.31715 0.21679,0.29127 0.156964,-0.043 0.30883,-0.0802 0.456389,-0.1132 1.779816,0.48935 2.692522,0.87919 2.692522,0.87919 0.164475,-0.20989 0.348577,-0.50091 0.548137,-0.8584 0.0033,0.001 0.01742,0.006 0.01742,0.006 0.0035,-0.0159 0.0071,-0.0407 0.01059,-0.0574 3.834524,-6.94088 13.470057,-39.12578 8.629572,-40.60035 -0.912191,-0.27789 -3.668509,3.52524 -6.854936,8.85555 -0.05449,-3.46429 -0.283626,-5.79811 -0.777206,-5.8762 -0.382142,-0.0605 -1.317899,4.89338 -2.28088,11.22448 -0.526035,0.95715 -1.051584,1.92875 -1.571604,2.91297 -0.138744,-2.22988 -0.304049,-4.46343 -0.495241,-6.63199 0.252409,-6.48833 0.100142,-11.48315 -0.847502,-11.61101 l 9e-6,9.2e-4 c -0.118443,-0.016 -0.280985,0.25453 -0.477853,0.75729 -0.73631,-4.2389 -1.633455,-7.00474 -2.674497,-6.89532 -0.607526,0.0638 -1.357004,3.7737 -2.05913,9.09515 -0.555942,-9.0362 -1.52054,-16.13694 -2.991061,-16.18315 z" />
    </a>
    <a
       id="a52916-7-8-3"
       transform="matrix(0.83356489,0.01219231,-0.00832542,0.56042485,142.42137,155.0693)"
       style="stroke:#307f15;stroke-width:0.769503;stroke-dasharray:none;stroke-opacity:1">
      <path
         id="rect51790-4-3-6-0-2-4"
         style="fill:#3fa51c;stroke:#307f15;stroke-width:0.769503;stroke-dasharray:none;stroke-opacity:1"
         d="m 70.085389,221.23993 c -1.085578,-0.0341 -3.060857,14.20884 -4.31438,28.0997 -0.675309,-7.03863 -1.891933,-12.68463 -3.78224,-12.72007 -0.195762,-0.004 -0.41509,0.2208 -0.651458,0.63105 -0.766662,-4.81122 -1.722039,-8.03683 -2.844666,-7.91883 -0.596268,0.0626 -1.329705,3.64079 -2.020502,8.80385 -0.474942,-5.41307 -1.161552,-9.19988 -2.100203,-9.2315 -0.75047,-0.0253 -2.01845,8.85041 -3.015829,18.95194 -2.057642,-10.26045 -4.566424,-19.38167 -6.427877,-18.96041 -0.860555,0.19472 -1.123826,7.95741 -0.934213,17.19801 -2.163366,-4.3296 -4.217165,-7.21885 -5.61573,-6.79261 -0.898547,0.27385 -0.713224,5.61669 0.05776,12.3004 -2.58698,-4.13674 -4.793285,-7.01918 -5.639669,-6.64455 -1.412555,0.62519 9.971015,35.92171 11.83393,34.36717 0.10152,-0.0847 0.205487,-0.16649 0.308723,-0.24923 0.196466,0.11647 0.388549,0.13286 0.573812,0.0364 3.052512,-1.58953 5.415797,-2.44622 6.882844,-2.89574 0.832201,-0.17091 1.555115,-0.25955 2.160634,-0.29781 0.204029,1.18367 0.503454,1.79461 0.916556,1.64167 1.992775,-0.73776 3.634819,-1.14482 4.888207,-1.37146 3.386708,-0.28447 5.251195,-0.0359 5.251195,-0.0359 0.07136,-0.20388 0.137657,-0.46898 0.200467,-0.78445 2.056039,-0.55889 3.712632,-0.75134 4.916311,-0.79208 0.02815,0.82982 0.1544,1.27407 0.400294,1.22229 0.08902,-0.0187 0.172459,-0.0331 0.259258,-0.0499 0.187287,0.62147 0.426939,0.91785 0.727193,0.80669 1.19088,-0.44089 2.256515,-0.7632 3.190781,-1.00074 0.594387,0.0796 0.905154,0.18963 0.905154,0.18963 0.01922,-0.0665 0.03922,-0.14107 0.05918,-0.21983 0.853179,0.17391 1.611075,0.35075 2.272956,0.52041 0.05137,0.21152 0.12224,0.31715 0.21679,0.29127 0.156964,-0.043 0.30883,-0.0802 0.456389,-0.1132 1.779816,0.48935 2.692522,0.87919 2.692522,0.87919 0.164475,-0.20989 0.348577,-0.50091 0.548137,-0.8584 0.0033,0.001 0.01742,0.006 0.01742,0.006 0.0035,-0.0159 0.0071,-0.0407 0.01059,-0.0574 3.834524,-6.94088 13.470057,-39.12578 8.629572,-40.60035 -0.912191,-0.27789 -3.668509,3.52524 -6.854936,8.85555 -0.05449,-3.46429 -0.283626,-5.79811 -0.777206,-5.8762 -0.382142,-0.0605 -1.317899,4.89338 -2.28088,11.22448 -0.526035,0.95715 -1.051584,1.92875 -1.571604,2.91297 -0.138744,-2.22988 -0.304049,-4.46343 -0.495241,-6.63199 0.252409,-6.48833 0.100142,-11.48315 -0.847502,-11.61101 l 9e-6,9.2e-4 c -0.118443,-0.016 -0.280985,0.25453 -0.477853,0.75729 -0.73631,-4.2389 -1.633455,-7.00474 -2.674497,-6.89532 -0.607526,0.0638 -1.357004,3.7737 -2.05913,9.09515 -0.555942,-9.0362 -1.52054,-16.13694 -2.991061,-16.18315 z" />
    </a>
    <a
       id="a52916-7-8-24"
       transform="matrix(0.83356489,0.01219231,-0.00832542,0.56042485,92.82848,122.17605)"
       style="stroke:#307f15;stroke-width:0.769503;stroke-dasharray:none;stroke-opacity:1">
      <path
         id="rect51790-4-3-6-0-2-40"
         style="fill:#3fa51c;stroke:#307f15;stroke-width:0.769503;stroke-dasharray:none;stroke-opacity:1"
         d="m 70.085389,221.23993 c -1.085578,-0.0341 -3.060857,14.20884 -4.31438,28.0997 -0.675309,-7.03863 -1.891933,-12.68463 -3.78224,-12.72007 -0.195762,-0.004 -0.41509,0.2208 -0.651458,0.63105 -0.766662,-4.81122 -1.722039,-8.03683 -2.844666,-7.91883 -0.596268,0.0626 -1.329705,3.64079 -2.020502,8.80385 -0.474942,-5.41307 -1.161552,-9.19988 -2.100203,-9.2315 -0.75047,-0.0253 -2.01845,8.85041 -3.015829,18.95194 -2.057642,-10.26045 -4.566424,-19.38167 -6.427877,-18.96041 -0.860555,0.19472 -1.123826,7.95741 -0.934213,17.19801 -2.163366,-4.3296 -4.217165,-7.21885 -5.61573,-6.79261 -0.898547,0.27385 -0.713224,5.61669 0.05776,12.3004 -2.58698,-4.13674 -4.793285,-7.01918 -5.639669,-6.64455 -1.412555,0.62519 9.971015,35.92171 11.83393,34.36717 0.10152,-0.0847 0.205487,-0.16649 0.308723,-0.24923 0.196466,0.11647 0.388549,0.13286 0.573812,0.0364 3.052512,-1.58953 5.415797,-2.44622 6.882844,-2.89574 0.832201,-0.17091 1.555115,-0.25955 2.160634,-0.29781 0.204029,1.18367 0.503454,1.79461 0.916556,1.64167 1.992775,-0.73776 3.634819,-1.14482 4.888207,-1.37146 3.386708,-0.28447 5.251195,-0.0359 5.251195,-0.0359 0.07136,-0.20388 0.137657,-0.46898 0.200467,-0.78445 2.056039,-0.55889 3.712632,-0.75134 4.916311,-0.79208 0.02815,0.82982 0.1544,1.27407 0.400294,1.22229 0.08902,-0.0187 0.172459,-0.0331 0.259258,-0.0499 0.187287,0.62147 0.426939,0.91785 0.727193,0.80669 1.19088,-0.44089 2.256515,-0.7632 3.190781,-1.00074 0.594387,0.0796 0.905154,0.18963 0.905154,0.18963 0.01922,-0.0665 0.03922,-0.14107 0.05918,-0.21983 0.853179,0.17391 1.611075,0.35075 2.272956,0.52041 0.05137,0.21152 0.12224,0.31715 0.21679,0.29127 0.156964,-0.043 0.30883,-0.0802 0.456389,-0.1132 1.779816,0.48935 2.692522,0.87919 2.692522,0.87919 0.164475,-0.20989 0.348577,-0.50091 0.548137,-0.8584 0.0033,0.001 0.01742,0.006 0.01742,0.006 0.0035,-0.0159 0.0071,-0.0407 0.01059,-0.0574 3.834524,-6.94088 13.470057,-39.12578 8.629572,-40.60035 -0.912191,-0.27789 -3.668509,3.52524 -6.854936,8.85555 -0.05449,-3.46429 -0.283626,-5.79811 -0.777206,-5.8762 -0.382142,-0.0605 -1.317899,4.89338 -2.28088,11.22448 -0.526035,0.95715 -1.051584,1.92875 -1.571604,2.91297 -0.138744,-2.22988 -0.304049,-4.46343 -0.495241,-6.63199 0.252409,-6.48833 0.100142,-11.48315 -0.847502,-11.61101 l 9e-6,9.2e-4 c -0.118443,-0.016 -0.280985,0.25453 -0.477853,0.75729 -0.73631,-4.2389 -1.633455,-7.00474 -2.674497,-6.89532 -0.607526,0.0638 -1.357004,3.7737 -2.05913,9.09515 -0.555942,-9.0362 -1.52054,-16.13694 -2.991061,-16.18315 z" />
    </a>
    <a
       id="a52916-7-8-45"
       transform="matrix(0.83356489,0.01219231,-0.00832542,0.56042485,52.850537,151.52695)"
       style="stroke:#307f15;stroke-width:0.769503;stroke-dasharray:none;stroke-opacity:1">
      <path
         id="rect51790-4-3-6-0-2-17"
         style="fill:#3fa51c;stroke:#307f15;stroke-width:0.769503;stroke-dasharray:none;stroke-opacity:1"
         d="m 70.085389,221.23993 c -1.085578,-0.0341 -3.060857,14.20884 -4.31438,28.0997 -0.675309,-7.03863 -1.891933,-12.68463 -3.78224,-12.72007 -0.195762,-0.004 -0.41509,0.2208 -0.651458,0.63105 -0.766662,-4.81122 -1.722039,-8.03683 -2.844666,-7.91883 -0.596268,0.0626 -1.329705,3.64079 -2.020502,8.80385 -0.474942,-5.41307 -1.161552,-9.19988 -2.100203,-9.2315 -0.75047,-0.0253 -2.01845,8.85041 -3.015829,18.95194 -2.057642,-10.26045 -4.566424,-19.38167 -6.427877,-18.96041 -0.860555,0.19472 -1.123826,7.95741 -0.934213,17.19801 -2.163366,-4.3296 -4.217165,-7.21885 -5.61573,-6.79261 -0.898547,0.27385 -0.713224,5.61669 0.05776,12.3004 -2.58698,-4.13674 -4.793285,-7.01918 -5.639669,-6.64455 -1.412555,0.62519 9.971015,35.92171 11.83393,34.36717 0.10152,-0.0847 0.205487,-0.16649 0.308723,-0.24923 0.196466,0.11647 0.388549,0.13286 0.573812,0.0364 3.052512,-1.58953 5.415797,-2.44622 6.882844,-2.89574 0.832201,-0.17091 1.555115,-0.25955 2.160634,-0.29781 0.204029,1.18367 0.503454,1.79461 0.916556,1.64167 1.992775,-0.73776 3.634819,-1.14482 4.888207,-1.37146 3.386708,-0.28447 5.251195,-0.0359 5.251195,-0.0359 0.07136,-0.20388 0.137657,-0.46898 0.200467,-0.78445 2.056039,-0.55889 3.712632,-0.75134 4.916311,-0.79208 0.02815,0.82982 0.1544,1.27407 0.400294,1.22229 0.08902,-0.0187 0.172459,-0.0331 0.259258,-0.0499 0.187287,0.62147 0.426939,0.91785 0.727193,0.80669 1.19088,-0.44089 2.256515,-0.7632 3.190781,-1.00074 0.594387,0.0796 0.905154,0.18963 0.905154,0.18963 0.01922,-0.0665 0.03922,-0.14107 0.05918,-0.21983 0.853179,0.17391 1.611075,0.35075 2.272956,0.52041 0.05137,0.21152 0.12224,0.31715 0.21679,0.29127 0.156964,-0.043 0.30883,-0.0802 0.456389,-0.1132 1.779816,0.48935 2.692522,0.87919 2.692522,0.87919 0.164475,-0.20989 0.348577,-0.50091 0.548137,-0.8584 0.0033,0.001 0.01742,0.006 0.01742,0.006 0.0035,-0.0159 0.0071,-0.0407 0.01059,-0.0574 3.834524,-6.94088 13.470057,-39.12578 8.629572,-40.60035 -0.912191,-0.27789 -3.668509,3.52524 -6.854936,8.85555 -0.05449,-3.46429 -0.283626,-5.79811 -0.777206,-5.8762 -0.382142,-0.0605 -1.317899,4.89338 -2.28088,11.22448 -0.526035,0.95715 -1.051584,1.92875 -1.571604,2.91297 -0.138744,-2.22988 -0.304049,-4.46343 -0.495241,-6.63199 0.252409,-6.48833 0.100142,-11.48315 -0.847502,-11.61101 l 9e-6,9.2e-4 c -0.118443,-0.016 -0.280985,0.25453 -0.477853,0.75729 -0.73631,-4.2389 -1.633455,-7.00474 -2.674497,-6.89532 -0.607526,0.0638 -1.357004,3.7737 -2.05913,9.09515 -0.555942,-9.0362 -1.52054,-16.13694 -2.991061,-16.18315 z" />
    </a>
    <path
       id="path6253"
       style="fill:#006700;stroke-width:1.60714"
       d="m 222.6186,68.455484 c -11.69703,0.815003 -33.90536,22.756193 -33.90518,35.245656 0.006,1.35906 7.73906,2.10369 8.01708,3.43985 -9.05351,4.94264 -20.65933,11.22913 -20.66841,19.17424 0.003,1.80983 6.60493,4.83694 7.15141,6.60739 -8.66035,4.56485 -16.26035,12.81788 -16.26049,19.06264 0.009,3.20538 4.07074,4.13815 6.54842,7.10264 -9.27555,4.94317 -15.64514,16.74024 -15.65702,23.2531 0.0122,4.70501 3.94908,3.82799 9.02125,7.92187 -8.63166,4.69922 -12.32216,21.0233 -12.33603,26.91586 -0.89502,15.25298 28.46643,16.50242 64.79949,16.50249 36.33326,5e-5 66.79922,-0.92635 66.79878,-15.89131 -0.0119,-6.03015 -5.91929,-23.09155 -14.92288,-27.8466 4.80925,-4.01738 9.56439,-0.8762 9.56567,-5.45589 -0.006,-6.17695 -6.82858,-19.81745 -15.24904,-24.64807 2.90276,-3.17403 7.51704,-2.99682 7.52305,-6.47741 -0.0101,-6.02055 -7.60797,-15.44886 -15.72617,-19.95333 0.64827,-1.92524 7.97753,-3.2807 7.59875,-6.28569 -0.009,-7.24096 -11.02201,-13.73857 -18.74277,-18.6671 0.48395,-1.75594 7.81519,-1.92759 7.81902,-3.73602 1.8e-4,-12.489471 -20.94303,-35.856774 -31.37493,-36.264316 z"
       sodipodi:nodetypes="ccccccccccscccccccccc" />
    <path
       id="path6253-7"
       style="fill:#3fa51c;fill-opacity:1;stroke-width:1.44467"
       d="m 222.63693,69.202106 c -10.16795,0.757592 -29.47312,21.153159 -29.47296,32.762804 0.005,1.26333 6.72738,1.95549 6.96906,3.19754 -7.87,4.59446 -17.95867,10.43811 -17.96655,17.82353 0.002,1.68234 5.74149,4.4962 6.21654,6.14194 -7.52823,4.24328 -14.13472,11.91494 -14.13485,17.71979 0.007,2.97959 3.53859,3.84665 5.69238,6.60231 -8.06301,4.59495 -13.59994,15.56098 -13.61026,21.61505 0.011,4.37358 3.43284,3.55834 7.84196,7.36384 -7.50331,4.36818 -10.71136,19.54233 -10.72342,25.01978 -0.77802,14.17851 24.74518,15.33993 56.32863,15.34 31.58362,4e-5 58.06693,-0.8611 58.06655,-14.77186 -0.01,-5.60537 -5.14549,-21.46489 -12.9721,-25.88498 4.18056,-3.73439 8.3141,-0.81448 8.3152,-5.07156 -0.005,-5.74182 -5.93591,-18.42143 -13.25562,-22.91176 2.52331,-2.95043 6.53439,-2.78571 6.5396,-6.02112 -0.008,-5.59644 -6.61341,-14.36058 -13.67037,-18.54773 0.56353,-1.78963 6.93469,-3.0496 6.60541,-5.8429 -0.007,-6.73089 -9.58116,-12.77078 -16.29263,-17.35212 0.42069,-1.63225 6.79356,-1.7918 6.79688,-3.47285 1.5e-4,-11.609657 -18.20526,-33.33087 -27.27345,-33.709704 z"
       sodipodi:nodetypes="ccccccccccscccccccccc" />
    <path
       id="rect44118-8-6"
       style="fill:#270000;stroke-width:0.889328"
       d="m 86.974015,109.03555 c 1.69283,-1.20792 5.583986,-1.87631 6.71339,-3.73175 1.129397,-1.85542 0.426287,-7.79937 0.426287,-7.79937 l 2.174963,-0.232463 c 1.5579,-0.166518 0.559077,7.278993 -0.813353,9.424333 -1.454765,2.27409 -5.134578,3.23816 -7.815333,4.55157 0,0 -1.325617,-1.75588 -0.685954,-2.21232 z"
       sodipodi:nodetypes="szcsscs" />
    <path
       id="path17224"
       style="fill:#1a0000;stroke-width:1.78936"
       d="m 124.92316,-62.217082 c 1.39137,11.224331 -10.54749,24.286099 -16.58627,25.793097 -8.967567,2.23789 -11.975903,3.907829 -23.351379,3.907829 -22.750953,1e-6 -44.052878,-8.888384 -45.269719,-27.590648 -1.060344,-16.296982 22.824744,-29.10402 45.575697,-29.104019 11.375476,1e-6 9.254425,2.873852 18.271401,5.907474 8.63909,2.906488 19.80013,8.500475 21.36027,21.086267 z"
       sodipodi:nodetypes="sssssss"
       transform="matrix(0.29263416,0.95622448,-0.96563168,0.25991432,0,0)" />
    <path
       id="path6563-7-3"
       style="fill:#ffbcbc;fill-opacity:0.540404;stroke-width:1.50074"
       d="M 84.819003,73.491652 A 24.968053,48.587738 84.190001 0 1 43.993968,104.99123 24.968053,48.587738 84.190001 0 1 -10.953694,87.95626 24.968053,48.587738 84.190001 0 1 29.871345,56.456672 24.968053,48.587738 84.190001 0 1 84.819003,73.491652 Z" />
    <path
       id="path6563-7-3-8"
       style="fill:#ffbcbc;fill-opacity:0.540404;stroke-width:1.50074"
       d="M 162.87575,11.602226 A 24.968053,48.587738 50.17651 0 1 146.65614,60.549446 24.968053,48.587738 50.17651 0 1 91.580531,77.166127 24.968053,48.587738 50.17651 0 1 107.80016,28.218891 24.968053,48.587738 50.17651 0 1 162.87575,11.602226 Z" />
    <g
       id="g35170">
      <path
         id="path6563"
         style="fill:#b00e0e;stroke-width:1.30565"
         d="M 96.012207,81.296261 A 23.631705,38.856099 24.146704 0 1 89.859956,36.50976 23.631705,38.856099 24.146704 0 1 127.2426,10.140002 a 23.631705,38.856099 24.146704 0 1 6.15226,44.78651 23.631705,38.856099 24.146704 0 1 -37.382653,26.369749 z" />
      <ellipse
         style="fill:#220202;fill-opacity:1;stroke:none;stroke-width:1.665;stroke-dasharray:none;stroke-opacity:1"
         id="path25884-2-7-54"
         cx="127.7985"
         cy="39.475052"
         rx="4.9201808"
         ry="4.6518073"
         transform="rotate(-4.4496783)" />
      <ellipse
         style="fill:#220202;fill-opacity:1;stroke:none;stroke-width:1.665;stroke-dasharray:none;stroke-opacity:1"
         id="path25884-2-7-33"
         cx="117.60031"
         cy="27.129873"
         rx="4.9201808"
         ry="4.6518073"
         transform="rotate(-4.4496783)" />
      <ellipse
         style="fill:#220202;fill-opacity:1;stroke:none;stroke-width:1.665;stroke-dasharray:none;stroke-opacity:1"
         id="path25884-2-7-2"
         cx="101.67682"
         cy="42.3377"
         rx="4.9201808"
         ry="4.6518073"
         transform="rotate(-4.4496783)" />
      <ellipse
         style="fill:#220202;fill-opacity:1;stroke:none;stroke-width:1.665;stroke-dasharray:none;stroke-opacity:1"
         id="path25884-2-7-37"
         cx="120.99971"
         cy="62.734085"
         rx="4.9201808"
         ry="4.6518073"
         transform="rotate(-4.4496783)" />
      <ellipse
         style="fill:#220202;fill-opacity:1;stroke:none;stroke-width:1.665;stroke-dasharray:none;stroke-opacity:1"
         id="path25884-2-7"
         cx="96.309319"
         cy="60.050354"
         rx="4.9201808"
         ry="4.6518073"
         transform="rotate(-4.4496783)" />
      <ellipse
         style="fill:#220202;fill-opacity:1;stroke:none;stroke-width:1.665;stroke-dasharray:none;stroke-opacity:1"
         id="path25884-2-7-21"
         cx="95.414772"
         cy="82.235909"
         rx="4.9201808"
         ry="4.6518073"
         transform="rotate(-4.4496783)" />
    </g>
    <path
       id="path6563-7"
       style="fill:#b00e0e;stroke-width:1.38892"
       d="M 85.054181,84.122932 A 41.042738,25.317292 20.256462 0 1 38.525897,94.590042 41.042738,25.317292 20.256462 0 1 7.6397846,56.873356 41.042738,25.317292 20.256462 0 1 54.168078,46.406238 41.042738,25.317292 20.256462 0 1 85.054181,84.122932 Z" />
    <ellipse
       style="fill:#220202;fill-opacity:1;stroke:none;stroke-width:1.665;stroke-dasharray:none;stroke-opacity:1"
       id="path25884"
       cx="36.588253"
       cy="61.189159"
       rx="4.9201808"
       ry="4.6518073" />
    <ellipse
       style="fill:#220202;fill-opacity:1;stroke:none;stroke-width:1.665;stroke-dasharray:none;stroke-opacity:1"
       id="path25884-2-9"
       cx="73.355415"
       cy="75.323494"
       rx="4.9201808"
       ry="4.6518073" />
    <ellipse
       style="fill:#220202;fill-opacity:1;stroke:none;stroke-width:1.665;stroke-dasharray:none;stroke-opacity:1"
       id="path25884-1"
       cx="56.716263"
       cy="58.505417"
       rx="4.9201808"
       ry="4.6518073" />
    <ellipse
       style="fill:#220202;fill-opacity:1;stroke:none;stroke-width:1.665;stroke-dasharray:none;stroke-opacity:1"
       id="path25884-8"
       cx="53.853615"
       cy="88.205421"
       rx="4.9201808"
       ry="4.6518073" />
    <ellipse
       style="fill:#220202;fill-opacity:1;stroke:none;stroke-width:1.665;stroke-dasharray:none;stroke-opacity:1"
       id="path25884-2-7-3"
       cx="18.070484"
       cy="58.147587"
       rx="4.9201808"
       ry="4.6518073" />
    <ellipse
       style="fill:#220202;fill-opacity:1;stroke:none;stroke-width:1.665;stroke-dasharray:none;stroke-opacity:1"
       id="path25884-2-99"
       cx="33.278313"
       cy="79.796394"
       rx="4.9201808"
       ry="4.6518073" />
    <ellipse
       style="fill:#ffecec;fill-opacity:1;stroke:none;stroke-width:0.832228;stroke-dasharray:none;stroke-opacity:1"
       id="path35898-5"
       cx="100.81898"
       cy="88.563255"
       rx="2.9521084"
       ry="3.1310239" />
    <ellipse
       style="fill:#ffecec;fill-opacity:1;stroke:none;stroke-width:0.832228;stroke-dasharray:none;stroke-opacity:1"
       id="path35898-5-5"
       cx="86.595184"
       cy="95.898788"
       rx="2.9521084"
       ry="3.1310239" />
    <ellipse
       style="fill:#270000;fill-opacity:1;stroke:none;stroke-width:1.47191;stroke-dasharray:none;stroke-opacity:1"
       id="path51690"
       cx="112.78587"
       cy="97.76252"
       rx="1.8344308"
       ry="2.0558276" />
    <ellipse
       style="fill:#270000;fill-opacity:1;stroke:none;stroke-width:1.47191;stroke-dasharray:none;stroke-opacity:1"
       id="path51690-6"
       cx="87.483383"
       cy="110.12911"
       rx="1.8344308"
       ry="2.0558276" />
    <a
       id="a52916-7-8"
       transform="matrix(0.83356489,0.01219231,-0.00832542,0.56042485,46.52498,74.349118)"
       style="stroke:#307f15;stroke-width:0.769503;stroke-dasharray:none;stroke-opacity:1">
      <path
         id="rect51790-4-3-6-0-2"
         style="fill:#3fa51c;stroke:#307f15;stroke-width:0.769503;stroke-dasharray:none;stroke-opacity:1"
         d="M 70.085389 221.23993 C 68.999811 221.20582 67.024532 235.44877 65.771009 249.33963 C 65.0957 242.301 63.879076 236.655 61.988769 236.61956 C 61.793007 236.61589 61.573679 236.84036 61.337311 237.25061 C 60.570649 232.43939 59.615272 229.21378 58.492645 229.33178 C 57.896377 229.39443 57.16294 232.97257 56.472143 238.13563 C 55.997201 232.72256 55.310591 228.93575 54.37194 228.90413 C 53.62147 228.87885 52.35349 237.75454 51.356111 247.85607 C 49.298469 237.59562 46.789687 228.4744 44.928234 228.89566 C 44.067679 229.09038 43.804408 236.85307 43.994021 246.09367 C 41.830655 241.76407 39.776856 238.87482 38.378291 239.30106 C 37.479744 239.57491 37.665067 244.91775 38.43605 251.60146 C 35.84907 247.46472 33.642765 244.58228 32.796381 244.95691 C 31.383826 245.5821 42.767396 280.87862 44.630311 279.32408 C 44.731831 279.23936 44.835798 279.15759 44.939034 279.07485 C 45.1355 279.19132 45.327583 279.20771 45.512846 279.11124 C 48.565358 277.52171 50.928643 276.66502 52.39569 276.2155 C 53.227891 276.04459 53.950805 275.95595 54.556324 275.91769 C 54.760353 277.10136 55.059778 277.7123 55.47288 277.55936 C 57.465655 276.8216 59.107699 276.41454 60.361087 276.1879 C 63.747795 275.90343 65.612282 276.15204 65.612282 276.15204 C 65.683641 275.94816 65.749939 275.68306 65.812749 275.36759 C 67.868788 274.8087 69.525381 274.61625 70.72906 274.57551 C 70.757214 275.40533 70.88346 275.84958 71.129354 275.7978 C 71.218372 275.77906 71.301813 275.76474 71.388612 275.7479 C 71.575899 276.36937 71.815551 276.66575 72.115805 276.55459 C 73.306685 276.1137 74.37232 275.79139 75.306586 275.55385 C 75.900973 275.63342 76.21174 275.74348 76.21174 275.74348 C 76.230964 275.67701 76.250956 275.60241 76.270919 275.52365 C 77.124098 275.69756 77.881994 275.8744 78.543875 276.04406 C 78.595244 276.25558 78.666115 276.36121 78.760665 276.33533 C 78.917629 276.29237 79.069495 276.25512 79.217054 276.22213 C 80.99687 276.71148 81.909576 277.10132 81.909576 277.10132 C 82.074051 276.89143 82.258153 276.60041 82.457713 276.24292 C 82.461015 276.24428 82.475133 276.24899 82.475133 276.24899 C 82.478592 276.2331 82.482231 276.20826 82.485718 276.19159 C 86.320242 269.25071 95.955775 237.06581 91.11529 235.59124 C 90.203099 235.31335 87.446781 239.11648 84.260354 244.44679 C 84.205866 240.9825 83.976728 238.64868 83.483148 238.57059 C 83.101006 238.51014 82.165249 243.46397 81.202268 249.79507 C 80.676233 250.75222 80.150684 251.72382 79.630664 252.70804 C 79.49192 250.47816 79.326615 248.24461 79.135423 246.07605 C 79.387832 239.58772 79.235565 234.5929 78.287921 234.46504 L 78.28793 234.46596 C 78.169487 234.44998 78.006945 234.72049 77.810077 235.22325 C 77.073767 230.98435 76.176622 228.21851 75.13558 228.32793 C 74.528054 228.39176 73.778576 232.10163 73.07645 237.42308 C 72.520508 228.38688 71.55591 221.28614 70.085389 221.23993 z " />
    </a>
    <a
       id="a52916-7-8-4"
       transform="matrix(0.83356489,0.01219231,-0.00832542,0.56042485,-34.190048,75.113414)"
       style="stroke:#307f15;stroke-width:0.769503;stroke-dasharray:none;stroke-opacity:1">
      <path
         id="rect51790-4-3-6-0-2-3"
         style="fill:#3fa51c;stroke:#307f15;stroke-width:0.769503;stroke-dasharray:none;stroke-opacity:1"
         d="m 70.085389,221.23993 c -1.085578,-0.0341 -3.060857,14.20884 -4.31438,28.0997 -0.675309,-7.03863 -1.891933,-12.68463 -3.78224,-12.72007 -0.195762,-0.004 -0.41509,0.2208 -0.651458,0.63105 -0.766662,-4.81122 -1.722039,-8.03683 -2.844666,-7.91883 -0.596268,0.0626 -1.329705,3.64079 -2.020502,8.80385 -0.474942,-5.41307 -1.161552,-9.19988 -2.100203,-9.2315 -0.75047,-0.0253 -2.01845,8.85041 -3.015829,18.95194 -2.057642,-10.26045 -4.566424,-19.38167 -6.427877,-18.96041 -0.860555,0.19472 -1.123826,7.95741 -0.934213,17.19801 -2.163366,-4.3296 -4.217165,-7.21885 -5.61573,-6.79261 -0.898547,0.27385 -0.713224,5.61669 0.05776,12.3004 -2.58698,-4.13674 -4.793285,-7.01918 -5.639669,-6.64455 -1.412555,0.62519 9.971015,35.92171 11.83393,34.36717 0.10152,-0.0847 0.205487,-0.16649 0.308723,-0.24923 0.196466,0.11647 0.388549,0.13286 0.573812,0.0364 3.052512,-1.58953 5.415797,-2.44622 6.882844,-2.89574 0.832201,-0.17091 1.555115,-0.25955 2.160634,-0.29781 0.204029,1.18367 0.503454,1.79461 0.916556,1.64167 1.992775,-0.73776 3.634819,-1.14482 4.888207,-1.37146 3.386708,-0.28447 5.251195,-0.0359 5.251195,-0.0359 0.07136,-0.20388 0.137657,-0.46898 0.200467,-0.78445 2.056039,-0.55889 3.712632,-0.75134 4.916311,-0.79208 0.02815,0.82982 0.1544,1.27407 0.400294,1.22229 0.08902,-0.0187 0.172459,-0.0331 0.259258,-0.0499 0.187287,0.62147 0.426939,0.91785 0.727193,0.80669 1.19088,-0.44089 2.256515,-0.7632 3.190781,-1.00074 0.594387,0.0796 0.905154,0.18963 0.905154,0.18963 0.01922,-0.0665 0.03922,-0.14107 0.05918,-0.21983 0.853179,0.17391 1.611075,0.35075 2.272956,0.52041 0.05137,0.21152 0.12224,0.31715 0.21679,0.29127 0.156964,-0.043 0.30883,-0.0802 0.456389,-0.1132 1.779816,0.48935 2.692522,0.87919 2.692522,0.87919 0.164475,-0.20989 0.348577,-0.50091 0.548137,-0.8584 0.0033,0.001 0.01742,0.006 0.01742,0.006 0.0035,-0.0159 0.0071,-0.0407 0.01059,-0.0574 3.834524,-6.94088 13.470057,-39.12578 8.629572,-40.60035 -0.912191,-0.27789 -3.668509,3.52524 -6.854936,8.85555 -0.05449,-3.46429 -0.283626,-5.79811 -0.777206,-5.8762 -0.382142,-0.0605 -1.317899,4.89338 -2.28088,11.22448 -0.526035,0.95715 -1.051584,1.92875 -1.571604,2.91297 -0.138744,-2.22988 -0.304049,-4.46343 -0.495241,-6.63199 0.252409,-6.48833 0.100142,-11.48315 -0.847502,-11.61101 l 9e-6,9.2e-4 c -0.118443,-0.016 -0.280985,0.25453 -0.477853,0.75729 -0.73631,-4.2389 -1.633455,-7.00474 -2.674497,-6.89532 -0.607526,0.0638 -1.357004,3.7737 -2.05913,9.09515 -0.555942,-9.0362 -1.52054,-16.13694 -2.991061,-16.18315 z" />
    </a>
    <a
       id="a52916-7-8-2"
       transform="matrix(0.83356489,0.01219231,-0.00832542,0.56042485,-47.347345,95.35541)"
       style="stroke:#307f15;stroke-width:0.769503;stroke-dasharray:none;stroke-opacity:1">
      <path
         id="rect51790-4-3-6-0-2-2"
         style="fill:#3fa51c;stroke:#307f15;stroke-width:0.769503;stroke-dasharray:none;stroke-opacity:1"
         d="m 70.085389,221.23993 c -1.085578,-0.0341 -3.060857,14.20884 -4.31438,28.0997 -0.675309,-7.03863 -1.891933,-12.68463 -3.78224,-12.72007 -0.195762,-0.004 -0.41509,0.2208 -0.651458,0.63105 -0.766662,-4.81122 -1.722039,-8.03683 -2.844666,-7.91883 -0.596268,0.0626 -1.329705,3.64079 -2.020502,8.80385 -0.474942,-5.41307 -1.161552,-9.19988 -2.100203,-9.2315 -0.75047,-0.0253 -2.01845,8.85041 -3.015829,18.95194 -2.057642,-10.26045 -4.566424,-19.38167 -6.427877,-18.96041 -0.860555,0.19472 -1.123826,7.95741 -0.934213,17.19801 -2.163366,-4.3296 -4.217165,-7.21885 -5.61573,-6.79261 -0.898547,0.27385 -0.713224,5.61669 0.05776,12.3004 -2.58698,-4.13674 -4.793285,-7.01918 -5.639669,-6.64455 -1.412555,0.62519 9.971015,35.92171 11.83393,34.36717 0.10152,-0.0847 0.205487,-0.16649 0.308723,-0.24923 0.196466,0.11647 0.388549,0.13286 0.573812,0.0364 3.052512,-1.58953 5.415797,-2.44622 6.882844,-2.89574 0.832201,-0.17091 1.555115,-0.25955 2.160634,-0.29781 0.204029,1.18367 0.503454,1.79461 0.916556,1.64167 1.992775,-0.73776 3.634819,-1.14482 4.888207,-1.37146 3.386708,-0.28447 5.251195,-0.0359 5.251195,-0.0359 0.07136,-0.20388 0.137657,-0.46898 0.200467,-0.78445 2.056039,-0.55889 3.712632,-0.75134 4.916311,-0.79208 0.02815,0.82982 0.1544,1.27407 0.400294,1.22229 0.08902,-0.0187 0.172459,-0.0331 0.259258,-0.0499 0.187287,0.62147 0.426939,0.91785 0.727193,0.80669 1.19088,-0.44089 2.256515,-0.7632 3.190781,-1.00074 0.594387,0.0796 0.905154,0.18963 0.905154,0.18963 0.01922,-0.0665 0.03922,-0.14107 0.05918,-0.21983 0.853179,0.17391 1.611075,0.35075 2.272956,0.52041 0.05137,0.21152 0.12224,0.31715 0.21679,0.29127 0.156964,-0.043 0.30883,-0.0802 0.456389,-0.1132 1.779816,0.48935 2.692522,0.87919 2.692522,0.87919 0.164475,-0.20989 0.348577,-0.50091 0.548137,-0.8584 0.0033,0.001 0.01742,0.006 0.01742,0.006 0.0035,-0.0159 0.0071,-0.0407 0.01059,-0.0574 3.834524,-6.94088 13.470057,-39.12578 8.629572,-40.60035 -0.912191,-0.27789 -3.668509,3.52524 -6.854936,8.85555 -0.05449,-3.46429 -0.283626,-5.79811 -0.777206,-5.8762 -0.382142,-0.0605 -1.317899,4.89338 -2.28088,11.22448 -0.526035,0.95715 -1.051584,1.92875 -1.571604,2.91297 -0.138744,-2.22988 -0.304049,-4.46343 -0.495241,-6.63199 0.252409,-6.48833 0.100142,-11.48315 -0.847502,-11.61101 l 9e-6,9.2e-4 c -0.118443,-0.016 -0.280985,0.25453 -0.477853,0.75729 -0.73631,-4.2389 -1.633455,-7.00474 -2.674497,-6.89532 -0.607526,0.0638 -1.357004,3.7737 -2.05913,9.09515 -0.555942,-9.0362 -1.52054,-16.13694 -2.991061,-16.18315 z" />
    </a>
    <a
       id="a52916-7-8-7"
       transform="matrix(0.92216819,0.01104159,-0.00921037,0.50753138,12.731,108.6603)"
       style="stroke:#307f15;stroke-width:0.769503;stroke-dasharray:none;stroke-opacity:1">
      <path
         id="rect51790-4-3-6-0-2-0"
         style="fill:#3fa51c;stroke:#307f15;stroke-width:0.769503;stroke-dasharray:none;stroke-opacity:1"
         d="m 70.085389,221.23993 c -1.085578,-0.0341 -3.060857,14.20884 -4.31438,28.0997 -0.675309,-7.03863 -1.891933,-12.68463 -3.78224,-12.72007 -0.195762,-0.004 -0.41509,0.2208 -0.651458,0.63105 -0.766662,-4.81122 -1.722039,-8.03683 -2.844666,-7.91883 -0.596268,0.0626 -1.329705,3.64079 -2.020502,8.80385 -0.474942,-5.41307 -1.161552,-9.19988 -2.100203,-9.2315 -0.75047,-0.0253 -2.01845,8.85041 -3.015829,18.95194 -2.057642,-10.26045 -4.566424,-19.38167 -6.427877,-18.96041 -0.860555,0.19472 -1.123826,7.95741 -0.934213,17.19801 -2.163366,-4.3296 -4.217165,-7.21885 -5.61573,-6.79261 -0.898547,0.27385 -0.713224,5.61669 0.05776,12.3004 -2.58698,-4.13674 -4.793285,-7.01918 -5.639669,-6.64455 -1.412555,0.62519 9.971015,35.92171 11.83393,34.36717 0.10152,-0.0847 0.205487,-0.16649 0.308723,-0.24923 0.196466,0.11647 0.388549,0.13286 0.573812,0.0364 3.052512,-1.58953 5.415797,-2.44622 6.882844,-2.89574 0.832201,-0.17091 1.555115,-0.25955 2.160634,-0.29781 0.204029,1.18367 0.503454,1.79461 0.916556,1.64167 1.992775,-0.73776 3.634819,-1.14482 4.888207,-1.37146 3.386708,-0.28447 5.251195,-0.0359 5.251195,-0.0359 0.07136,-0.20388 0.137657,-0.46898 0.200467,-0.78445 2.056039,-0.55889 3.712632,-0.75134 4.916311,-0.79208 0.02815,0.82982 0.1544,1.27407 0.400294,1.22229 0.08902,-0.0187 0.172459,-0.0331 0.259258,-0.0499 0.187287,0.62147 0.426939,0.91785 0.727193,0.80669 1.19088,-0.44089 2.256515,-0.7632 3.190781,-1.00074 0.594387,0.0796 0.905154,0.18963 0.905154,0.18963 0.01922,-0.0665 0.03922,-0.14107 0.05918,-0.21983 0.853179,0.17391 1.611075,0.35075 2.272956,0.52041 0.05137,0.21152 0.12224,0.31715 0.21679,0.29127 0.156964,-0.043 0.30883,-0.0802 0.456389,-0.1132 1.779816,0.48935 2.692522,0.87919 2.692522,0.87919 0.164475,-0.20989 0.348577,-0.50091 0.548137,-0.8584 0.0033,0.001 0.01742,0.006 0.01742,0.006 0.0035,-0.0159 0.0071,-0.0407 0.01059,-0.0574 3.834524,-6.94088 13.470057,-39.12578 8.629572,-40.60035 -0.912191,-0.27789 -3.668509,3.52524 -6.854936,8.85555 -0.05449,-3.46429 -0.283626,-5.79811 -0.777206,-5.8762 -0.382142,-0.0605 -1.317899,4.89338 -2.28088,11.22448 -0.526035,0.95715 -1.051584,1.92875 -1.571604,2.91297 -0.138744,-2.22988 -0.304049,-4.46343 -0.495241,-6.63199 0.252409,-6.48833 0.100142,-11.48315 -0.847502,-11.61101 l 9e-6,9.2e-4 c -0.118443,-0.016 -0.280985,0.25453 -0.477853,0.75729 -0.73631,-4.2389 -1.633455,-7.00474 -2.674497,-6.89532 -0.607526,0.0638 -1.357004,3.7737 -2.05913,9.09515 -0.555942,-9.0362 -1.52054,-16.13694 -2.991061,-16.18315 z" />
    </a>
    <a
       id="a52916-7-8-17"
       transform="matrix(0.83356489,0.01219231,-0.00832542,0.56042485,31.343416,113.82623)"
       style="stroke:#307f15;stroke-width:0.769503;stroke-dasharray:none;stroke-opacity:1">
      <path
         id="rect51790-4-3-6-0-2-73"
         style="fill:#3fa51c;stroke:#307f15;stroke-width:0.769503;stroke-dasharray:none;stroke-opacity:1"
         d="m 70.085389,221.23993 c -1.085578,-0.0341 -3.060857,14.20884 -4.31438,28.0997 -0.675309,-7.03863 -1.891933,-12.68463 -3.78224,-12.72007 -0.195762,-0.004 -0.41509,0.2208 -0.651458,0.63105 -0.766662,-4.81122 -1.722039,-8.03683 -2.844666,-7.91883 -0.596268,0.0626 -1.329705,3.64079 -2.020502,8.80385 -0.474942,-5.41307 -1.161552,-9.19988 -2.100203,-9.2315 -0.75047,-0.0253 -2.01845,8.85041 -3.015829,18.95194 -2.057642,-10.26045 -4.566424,-19.38167 -6.427877,-18.96041 -0.860555,0.19472 -1.123826,7.95741 -0.934213,17.19801 -2.163366,-4.3296 -4.217165,-7.21885 -5.61573,-6.79261 -0.898547,0.27385 -0.713224,5.61669 0.05776,12.3004 -2.58698,-4.13674 -4.793285,-7.01918 -5.639669,-6.64455 -1.412555,0.62519 9.971015,35.92171 11.83393,34.36717 0.10152,-0.0847 0.205487,-0.16649 0.308723,-0.24923 0.196466,0.11647 0.388549,0.13286 0.573812,0.0364 3.052512,-1.58953 5.415797,-2.44622 6.882844,-2.89574 0.832201,-0.17091 1.555115,-0.25955 2.160634,-0.29781 0.204029,1.18367 0.503454,1.79461 0.916556,1.64167 1.992775,-0.73776 3.634819,-1.14482 4.888207,-1.37146 3.386708,-0.28447 5.251195,-0.0359 5.251195,-0.0359 0.07136,-0.20388 0.137657,-0.46898 0.200467,-0.78445 2.056039,-0.55889 3.712632,-0.75134 4.916311,-0.79208 0.02815,0.82982 0.1544,1.27407 0.400294,1.22229 0.08902,-0.0187 0.172459,-0.0331 0.259258,-0.0499 0.187287,0.62147 0.426939,0.91785 0.727193,0.80669 1.19088,-0.44089 2.256515,-0.7632 3.190781,-1.00074 0.594387,0.0796 0.905154,0.18963 0.905154,0.18963 0.01922,-0.0665 0.03922,-0.14107 0.05918,-0.21983 0.853179,0.17391 1.611075,0.35075 2.272956,0.52041 0.05137,0.21152 0.12224,0.31715 0.21679,0.29127 0.156964,-0.043 0.30883,-0.0802 0.456389,-0.1132 1.779816,0.48935 2.692522,0.87919 2.692522,0.87919 0.164475,-0.20989 0.348577,-0.50091 0.548137,-0.8584 0.0033,0.001 0.01742,0.006 0.01742,0.006 0.0035,-0.0159 0.0071,-0.0407 0.01059,-0.0574 3.834524,-6.94088 13.470057,-39.12578 8.629572,-40.60035 -0.912191,-0.27789 -3.668509,3.52524 -6.854936,8.85555 -0.05449,-3.46429 -0.283626,-5.79811 -0.777206,-5.8762 -0.382142,-0.0605 -1.317899,4.89338 -2.28088,11.22448 -0.526035,0.95715 -1.051584,1.92875 -1.571604,2.91297 -0.138744,-2.22988 -0.304049,-4.46343 -0.495241,-6.63199 0.252409,-6.48833 0.100142,-11.48315 -0.847502,-11.61101 l 9e-6,9.2e-4 c -0.118443,-0.016 -0.280985,0.25453 -0.477853,0.75729 -0.73631,-4.2389 -1.633455,-7.00474 -2.674497,-6.89532 -0.607526,0.0638 -1.357004,3.7737 -2.05913,9.09515 -0.555942,-9.0362 -1.52054,-16.13694 -2.991061,-16.18315 z" />
    </a>
    <a
       id="a52916-7-8-9"
       transform="matrix(0.83356489,0.01219231,-0.00832542,0.56042485,-8.1284741,126.47749)"
       style="stroke:#307f15;stroke-width:0.769503;stroke-dasharray:none;stroke-opacity:1">
      <path
         id="rect51790-4-3-6-0-2-9"
         style="fill:#3fa51c;stroke:#307f15;stroke-width:0.769503;stroke-dasharray:none;stroke-opacity:1"
         d="m 70.085389,221.23993 c -1.085578,-0.0341 -3.060857,14.20884 -4.31438,28.0997 -0.675309,-7.03863 -1.891933,-12.68463 -3.78224,-12.72007 -0.195762,-0.004 -0.41509,0.2208 -0.651458,0.63105 -0.766662,-4.81122 -1.722039,-8.03683 -2.844666,-7.91883 -0.596268,0.0626 -1.329705,3.64079 -2.020502,8.80385 -0.474942,-5.41307 -1.161552,-9.19988 -2.100203,-9.2315 -0.75047,-0.0253 -2.01845,8.85041 -3.015829,18.95194 -2.057642,-10.26045 -4.566424,-19.38167 -6.427877,-18.96041 -0.860555,0.19472 -1.123826,7.95741 -0.934213,17.19801 -2.163366,-4.3296 -4.217165,-7.21885 -5.61573,-6.79261 -0.898547,0.27385 -0.713224,5.61669 0.05776,12.3004 -2.58698,-4.13674 -4.793285,-7.01918 -5.639669,-6.64455 -1.412555,0.62519 9.971015,35.92171 11.83393,34.36717 0.10152,-0.0847 0.205487,-0.16649 0.308723,-0.24923 0.196466,0.11647 0.388549,0.13286 0.573812,0.0364 3.052512,-1.58953 5.415797,-2.44622 6.882844,-2.89574 0.832201,-0.17091 1.555115,-0.25955 2.160634,-0.29781 0.204029,1.18367 0.503454,1.79461 0.916556,1.64167 1.992775,-0.73776 3.634819,-1.14482 4.888207,-1.37146 3.386708,-0.28447 5.251195,-0.0359 5.251195,-0.0359 0.07136,-0.20388 0.137657,-0.46898 0.200467,-0.78445 2.056039,-0.55889 3.712632,-0.75134 4.916311,-0.79208 0.02815,0.82982 0.1544,1.27407 0.400294,1.22229 0.08902,-0.0187 0.172459,-0.0331 0.259258,-0.0499 0.187287,0.62147 0.426939,0.91785 0.727193,0.80669 1.19088,-0.44089 2.256515,-0.7632 3.190781,-1.00074 0.594387,0.0796 0.905154,0.18963 0.905154,0.18963 0.01922,-0.0665 0.03922,-0.14107 0.05918,-0.21983 0.853179,0.17391 1.611075,0.35075 2.272956,0.52041 0.05137,0.21152 0.12224,0.31715 0.21679,0.29127 0.156964,-0.043 0.30883,-0.0802 0.456389,-0.1132 1.779816,0.48935 2.692522,0.87919 2.692522,0.87919 0.164475,-0.20989 0.348577,-0.50091 0.548137,-0.8584 0.0033,0.001 0.01742,0.006 0.01742,0.006 0.0035,-0.0159 0.0071,-0.0407 0.01059,-0.0574 3.834524,-6.94088 13.470057,-39.12578 8.629572,-40.60035 -0.912191,-0.27789 -3.668509,3.52524 -6.854936,8.85555 -0.05449,-3.46429 -0.283626,-5.79811 -0.777206,-5.8762 -0.382142,-0.0605 -1.317899,4.89338 -2.28088,11.22448 -0.526035,0.95715 -1.051584,1.92875 -1.571604,2.91297 -0.138744,-2.22988 -0.304049,-4.46343 -0.495241,-6.63199 0.252409,-6.48833 0.100142,-11.48315 -0.847502,-11.61101 l 9e-6,9.2e-4 c -0.118443,-0.016 -0.280985,0.25453 -0.477853,0.75729 -0.73631,-4.2389 -1.633455,-7.00474 -2.674497,-6.89532 -0.607526,0.0638 -1.357004,3.7737 -2.05913,9.09515 -0.555942,-9.0362 -1.52054,-16.13694 -2.991061,-16.18315 z" />
    </a>
  </g>
</svg>
